<svg width="47" height="47" viewBox="0 0 47 47" fill="none" xmlns="http://www.w3.org/2000/svg">
<path d="M14.4768 32.971C14.3485 33.1816 14.2076 33.3851 14.0939 33.6032C13.5854 34.5818 13.1248 35.5882 12.5723 36.5411C11.6062 38.2069 10.3486 38.7866 8.52798 38.4922C7.85881 38.3842 7.50933 37.9827 7.57751 37.4C7.64215 36.8471 8.07092 36.5325 8.74615 36.6673C9.8653 36.8905 10.5501 36.4047 11.0698 35.47C11.7289 34.2844 12.4162 33.1129 13.1394 31.9656C13.3874 31.5717 13.748 31.2294 14.1141 30.9335C14.9131 30.2881 15.6494 30.4144 16.053 31.3511C16.3908 32.1353 16.5772 32.9927 16.759 33.8335C16.8913 34.4445 16.9019 35.0812 16.9772 35.7048C17.0009 35.9013 17.0585 36.0942 17.1262 36.4047C17.3352 36.2088 17.4953 36.0982 17.6029 35.9498C17.8519 35.6064 18.0605 35.2337 18.3125 34.8924C18.8781 34.1253 19.5852 33.9001 20.4614 34.2642C20.9427 34.4642 21.3972 34.7449 21.8336 35.0348C22.827 35.6942 23.8224 36.3426 25.0122 36.5951C25.3395 36.6643 25.6718 36.7087 26.0683 36.7759C26.1314 35.6008 26.2304 34.4864 26.238 33.3714C26.243 32.5938 26.4566 31.9303 26.848 31.2622C29.3798 26.9392 31.8852 22.6011 34.3851 18.2599C34.5286 18.011 34.6159 17.6913 34.6169 17.404C34.6316 13.0523 34.6281 8.69999 34.626 4.34823C34.6255 2.77729 33.7296 1.87089 32.1706 1.87038C25.5748 1.86786 18.9796 1.86937 12.3839 1.86937C12.2334 1.86937 12.0824 1.86937 11.8546 1.86937C11.8546 2.07943 11.8546 2.25819 11.8546 2.43695C11.8546 4.17099 11.8592 5.90503 11.8536 7.63907C11.8455 10.2361 10.137 11.9398 7.53054 11.9499C5.84777 11.9565 4.165 11.9509 2.48173 11.9509C2.2984 11.9509 2.11508 11.9509 1.87418 11.9509C1.87418 12.1792 1.87418 12.361 1.87418 12.5422C1.87418 22.5723 1.87418 32.6024 1.87418 42.6324C1.87418 44.2332 2.76606 45.1365 4.35692 45.1365C13.6212 45.1385 22.8855 45.1385 32.1499 45.1365C33.7145 45.1365 34.619 44.2296 34.62 42.6703C34.622 39.9672 34.62 37.2642 34.621 34.5611C34.621 34.3914 34.6104 34.2182 34.6397 34.0526C34.724 33.5714 35.1472 33.2447 35.6235 33.2735C36.0851 33.3017 36.4229 33.6436 36.4674 34.1354C36.4795 34.2702 36.476 34.4071 36.476 34.5429C36.476 37.246 36.479 39.9491 36.4755 42.6521C36.4719 45.2921 34.7826 46.9958 32.1448 46.9973C22.8805 47.0024 13.6162 47.0024 4.35187 46.9973C2.16053 46.9963 0.553012 45.7708 0.106563 43.7711C0.0262628 43.4106 0.0111119 43.0293 0.0111119 42.6577C0.0070716 32.2524 0.0106068 21.8487 1.14412e-06 11.4445C-0.000503888 10.893 0.166157 10.4845 0.563112 10.0967C3.82209 6.91343 7.06894 3.71753 10.3067 0.513043C10.6744 0.148965 11.0668 -0.000503687 11.5759 1.27485e-06C18.4261 0.00858563 25.2769 0.00252608 32.1271 0.0075757C34.7841 0.00959555 36.4729 1.71738 36.476 4.39014C36.4795 7.55221 36.477 10.7143 36.477 13.8764C36.477 14.0576 36.477 14.2389 36.477 14.4202L36.5846 14.4616C36.6739 14.3137 36.7664 14.1667 36.8522 14.0167C37.9173 12.161 38.9638 10.2942 40.0506 8.45155C41.3 6.33323 44.2272 6.2075 45.5979 8.20614C46.3009 9.23172 46.3514 10.3265 45.809 11.4429C45.6625 11.7444 45.4847 12.0312 45.3161 12.3347C45.3903 12.3938 45.4393 12.4407 45.4948 12.4756C47.0877 13.483 47.419 14.8302 46.4766 16.4703C44.8181 19.3562 43.1596 22.2416 41.5005 25.1274C41.4243 25.2597 41.3526 25.3955 41.2662 25.5213C40.993 25.9182 40.5627 26.0641 40.1561 25.9061C39.7577 25.751 39.4789 25.2653 39.5784 24.8249C39.6294 24.5987 39.7425 24.3806 39.8592 24.1766C41.5111 21.2872 43.1682 18.4003 44.8247 15.5134C45.306 14.6747 45.2438 14.4631 44.3323 13.992C44.2252 14.1743 44.1146 14.3586 44.0075 14.5449C40.093 21.3437 36.1815 28.1451 32.2544 34.9368C32.0675 35.2595 31.7761 35.5559 31.4671 35.767C30.3307 36.5426 29.1353 37.2339 28.0222 38.0398C27.0319 38.7573 26.0031 38.8386 24.8814 38.5276C23.2749 38.0822 21.8164 37.3374 20.4841 36.3436C19.924 35.926 19.8892 35.9452 19.464 36.5183C19.0205 37.1157 18.5786 37.7343 18.0322 38.2297C17.1443 39.0351 16.3171 38.8316 15.7787 37.7525C15.2222 36.637 15.0964 35.4155 14.9323 34.2031C14.8767 33.7936 14.7677 33.3916 14.6828 32.9861C14.6141 32.9811 14.5454 32.9765 14.4763 32.9715L14.4768 32.971ZM28.0475 35.8038C28.7899 35.3271 29.4484 34.9439 30.06 34.4965C30.3893 34.2556 30.7095 33.9466 30.9125 33.5976C33.1917 29.6781 35.4472 25.745 37.7098 21.8159C38.8612 19.8162 40.0132 17.8166 41.191 15.772C40.3814 15.3049 39.5976 14.853 38.8158 14.402C38.7471 14.4975 38.7133 14.5358 38.6885 14.5793C35.2361 20.5858 31.7837 26.5928 28.3348 32.6019C28.2692 32.716 28.2086 32.8498 28.2005 32.9781C28.1439 33.8759 28.1015 34.7742 28.0475 35.8038ZM9.94359 3.62411L9.81026 3.53726C7.71639 5.73637 5.62253 7.93548 3.60997 10.0492C4.96851 10.0492 6.5134 10.0801 8.05678 10.0381C9.02695 10.0119 9.89763 9.17061 9.92995 8.20462C9.98146 6.67913 9.94359 5.15112 9.94359 3.62411ZM42.0995 14.1728C42.8076 12.9215 43.5121 11.7272 44.1626 10.5042C44.4833 9.90129 44.2237 9.17869 43.654 8.81664C43.0863 8.45609 42.2798 8.52325 41.9157 9.08427C41.1374 10.2841 40.4334 11.5318 39.6849 12.7846C40.5198 13.2643 41.2925 13.7087 42.1 14.1728H42.0995Z" fill="#008755"/>
<path d="M17.2524 25.2284C14.5525 25.2284 11.8521 25.2299 9.15215 25.2259C8.93398 25.2259 8.70671 25.2188 8.49965 25.1587C8.07694 25.0365 7.84614 24.7189 7.84816 24.2882C7.85068 23.8372 8.08805 23.5115 8.53803 23.3939C8.73196 23.3434 8.94105 23.3348 9.14306 23.3348C14.5939 23.3318 20.0452 23.3318 25.496 23.3353C25.7147 23.3353 25.9445 23.3424 26.149 23.409C26.5399 23.5363 26.7581 23.8297 26.7717 24.2483C26.7859 24.6674 26.5899 24.9815 26.202 25.1213C25.9697 25.2052 25.7046 25.2239 25.4541 25.2244C22.7204 25.2314 19.9861 25.2284 17.2524 25.2284Z" fill="#008755"/>
<path d="M21.7231 18.6059C20.4489 18.6059 19.1752 18.608 17.901 18.6049C17.1788 18.6034 16.7606 18.251 16.7652 17.6601C16.7697 17.0729 17.1869 16.7164 17.9106 16.7149C20.4923 16.7093 23.0745 16.7093 25.6563 16.7149C26.3568 16.7164 26.7623 17.0613 26.7739 17.6299C26.786 18.2106 26.3583 18.5963 25.6462 18.6029C24.3381 18.6145 23.0301 18.6064 21.7226 18.6064L21.7231 18.6059Z" fill="#008755"/>
<path d="M21.6949 11.9933C20.404 11.9933 19.1136 11.9968 17.8228 11.9918C17.1273 11.9888 16.7213 11.6434 16.7183 11.0728C16.7157 10.5042 17.1349 10.1406 17.8132 10.1396C20.4287 10.1371 23.0438 10.1366 25.6594 10.1396C26.324 10.1406 26.7593 10.5284 26.7447 11.0879C26.7305 11.6318 26.3159 11.9883 25.669 11.9913C24.3443 11.9968 23.0196 11.9928 21.6949 11.9928V11.9933Z" fill="#008755"/>
</svg>
