<svg width="44" height="43" viewBox="0 0 44 43" fill="none" xmlns="http://www.w3.org/2000/svg">
<path d="M41.0667 13.1577H2.9344C2.9344 13.3416 2.9344 13.507 2.9344 13.6718C2.9344 17.6917 2.9331 21.7111 2.9344 25.731C2.9357 28.5233 4.80234 30.4107 7.56356 30.4133C10.4198 30.4153 13.2761 30.4074 16.1324 30.4226C16.4579 30.4245 16.8115 30.4865 17.1012 30.6269C17.6846 30.9096 17.9632 31.6127 17.8135 32.2342C17.6507 32.9103 17.1207 33.3756 16.4371 33.3769C13.2292 33.3829 10.0207 33.4323 6.81482 33.3545C3.52623 33.2748 0.533223 30.443 0.0956982 27.1341C0.0390544 26.7064 0.00519831 26.2728 0.00454723 25.8411C-1.03145e-05 19.9812 -0.00196355 14.1219 0.002594 8.26191C0.00519831 4.5398 2.45651 1.538 6.06413 0.850645C6.5557 0.757065 7.06614 0.728728 7.56812 0.728728C17.1904 0.722138 26.8133 0.720161 36.4363 0.724774C40.18 0.726751 43.1365 3.12754 43.8625 6.7442C43.938 7.12116 43.9894 7.50998 43.9907 7.89352C44.0011 11.5886 44.0012 15.2837 43.9972 18.9788C43.9966 19.6826 43.5636 20.2672 42.9464 20.4471C42.3442 20.623 41.6703 20.4082 41.3421 19.8513C41.1794 19.5752 41.083 19.218 41.0785 18.8951C41.0531 17.1639 41.0667 15.432 41.0667 13.7008C41.0667 13.5327 41.0667 13.3653 41.0667 13.1571V13.1577ZM2.9969 10.1342H41.0544C41.0544 9.3282 41.0628 8.55649 41.0492 7.78479C41.0453 7.55611 40.9925 7.3248 40.9378 7.10073C40.4274 5.00836 38.6773 3.69429 36.3887 3.69363C26.7964 3.69165 17.2041 3.69297 7.61174 3.69363C7.45874 3.69363 7.30639 3.69495 7.15404 3.70417C5.00808 3.83598 3.31919 5.32271 3.01774 7.47044C2.89664 8.33111 2.99755 9.22341 2.99755 10.1348L2.9969 10.1342Z" fill="#008755"/>
<path d="M32.2696 18.526C38.7432 18.5273 44.0131 23.8732 44 30.4265C43.9864 36.9593 38.7185 42.2788 32.265 42.2775C25.7933 42.2762 20.5222 36.927 20.5352 30.3751C20.5482 23.8429 25.8148 18.5247 32.2702 18.526H32.2696ZM32.2748 21.4949C27.4236 21.4922 23.4709 25.4858 23.4683 30.3935C23.465 35.3019 27.4132 39.3047 32.2598 39.308C37.109 39.3113 41.0637 35.315 41.0669 30.4087C41.0702 25.4984 37.124 21.4982 32.2748 21.4949Z" fill="#008755"/>
<path d="M13.338 17.3194C14.5139 17.3194 15.6897 17.3161 16.8656 17.32C17.8057 17.3233 18.4516 17.9283 18.4535 18.7982C18.4561 19.6727 17.8148 20.2849 16.8734 20.2869C14.5061 20.2915 12.1394 20.2915 9.77207 20.2869C8.84949 20.2849 8.18604 19.6417 8.19841 18.7844C8.21078 17.9408 8.86251 17.3253 9.7636 17.3213C10.9551 17.3161 12.1459 17.32 13.3374 17.32L13.338 17.3194Z" fill="#008755"/>
<path d="M11.1213 23.696C11.1317 24.5126 10.4975 25.1841 9.698 25.2019C8.88611 25.2203 8.19857 24.5389 8.19922 23.7171C8.19987 22.9052 8.8503 22.2436 9.65243 22.2377C10.4546 22.2317 11.1102 22.8828 11.1206 23.696H11.1213Z" fill="#008755"/>
<path d="M28.6525 29.4711C29.1513 29.4665 29.5152 29.7262 29.8466 30.0675C30.7972 31.0468 30.637 31.0225 31.5837 30.0675C32.6749 28.9663 33.7576 27.8559 34.856 26.7626C35.3612 26.2598 36.0449 26.1807 36.623 26.5148C37.183 26.8384 37.4785 27.4822 37.3047 28.1373C37.2331 28.4075 37.0801 28.6882 36.8861 28.8873C35.2154 30.6027 33.5324 32.3069 31.8402 34.0012C31.2464 34.5956 30.3857 34.7004 29.8056 34.1772C28.9872 33.4391 28.217 32.6417 27.476 31.8232C27.0704 31.3744 27.0776 30.7944 27.3497 30.2587C27.6154 29.7347 28.0698 29.481 28.6525 29.4718V29.4711Z" fill="#008755"/>
</svg>
