<svg width="63" height="50" viewBox="0 0 63 50" fill="none" xmlns="http://www.w3.org/2000/svg">
<path d="M63.004 27.9526C62.5816 28.2923 62.1821 28.6646 61.7334 28.9653C59.5275 30.4428 57.3084 31.9008 55.0943 33.3653C53.7333 34.2658 53.5607 34.2398 52.5448 32.9882C50.3965 34.4853 48.2464 35.9823 46.0307 37.5281C46.6224 38.6984 46.726 39.9809 45.909 41.2195C45.1151 42.4223 43.9562 42.9571 42.5311 42.9278C42.0248 45.2733 41.0287 46.1413 38.5269 46.4193C38.4595 46.7021 38.4086 47.0012 38.3165 47.2873C37.5949 49.5466 34.9781 50.5235 32.9333 49.2703C31.7843 48.5649 30.6797 47.7928 29.5537 47.0516C29.368 46.9297 29.1789 46.8126 29.1674 46.9037C28.3784 47.5831 27.5582 48.2317 26.807 48.9485C25.7945 49.914 24.6356 50.2488 23.3124 49.81C21.9957 49.3727 21.2166 48.443 21.0391 47.0548C21.0325 46.9979 21.0029 46.9427 20.9865 46.8939C19.0041 46.4632 18.1609 45.6293 17.8025 43.7308C15.9533 43.4805 14.9046 42.4012 14.617 40.5986C11.3508 39.8265 10.6078 37.4972 12.7003 34.5942C12.5968 34.5064 12.4965 34.4089 12.3864 34.326C11.7683 33.8627 11.1486 33.4043 10.5322 32.946C9.37668 34.274 9.30107 34.2837 7.80361 33.2922C5.47113 31.748 3.13701 30.2038 0.804524 28.6597C-0.134057 28.0388 -0.22775 27.5771 0.400162 26.6506C3.31124 22.353 6.21739 18.0585 9.12683 13.7657C9.73337 12.8717 10.1986 12.784 11.1191 13.3919C13.5387 14.9913 15.955 16.594 18.3729 18.1934C19.4923 18.9346 19.5581 19.1199 19.0863 20.3585C20.9207 20.8559 22.7519 21.3549 24.5847 21.8491C26.2037 22.2863 27.8212 22.7317 29.4485 23.1397C29.7395 23.2128 30.0945 23.1901 30.3805 23.0942C32.7837 22.2879 35.1836 21.4687 37.5703 20.617C38.2623 20.3699 38.9477 20.2854 39.6052 20.5682C41.0879 21.2038 42.49 20.8543 43.9234 20.3276C43.902 20.2578 43.8872 20.1814 43.8543 20.1163C43.4631 19.3426 43.5716 18.9086 44.3113 18.4177C46.8805 16.7127 49.4513 15.0092 52.0238 13.3106C52.7914 12.8035 53.301 12.9107 53.8335 13.6958C56.4816 17.6001 59.1248 21.5077 61.7696 25.4153C62.1789 26.02 62.5914 26.6214 63.0024 27.2244V27.9542L63.004 27.9526ZM27.6042 41.8502C28.1171 42.4174 28.7532 42.8531 28.9866 43.4447C29.3302 44.316 29.9515 44.7922 30.6797 45.2473C31.3553 45.6683 32.0078 46.1251 32.6735 46.5639C33.1157 46.8565 33.5513 47.1621 34.0066 47.4336C34.7825 47.8968 35.5945 47.731 36.0564 47.0386C36.5281 46.3315 36.3753 45.5611 35.6487 45.0084C35.5189 44.9092 35.3792 44.8247 35.2427 44.7337C34.4258 44.1924 33.6039 43.6577 32.7919 43.1099C32.0982 42.6434 31.9306 42.0858 32.2988 41.5234C32.662 40.9692 33.2768 40.896 33.9639 41.3284C34.102 41.4162 34.2384 41.5056 34.3748 41.5966C35.5485 42.3752 36.7155 43.1651 37.9007 43.9275C38.8097 44.5143 39.7614 44.2704 40.169 43.3797C40.4896 42.6791 40.2742 41.9834 39.5378 41.4893C38.1144 40.5336 36.6777 39.594 35.2493 38.648C34.7891 38.3441 34.3173 38.0547 33.8817 37.7199C33.4067 37.3558 33.3343 36.7901 33.6499 36.3106C33.9622 35.836 34.5195 35.6848 35.0504 35.9449C35.2329 36.0343 35.4005 36.153 35.5715 36.2651C37.6656 37.6516 39.7548 39.043 41.8539 40.4246C42.6906 40.9757 43.593 40.8391 44.073 40.1191C44.5611 39.3876 44.3425 38.5505 43.4894 37.9816C41.3131 36.5333 39.1631 35.046 36.9358 33.679C36.0498 33.1345 34.9978 32.8452 34.0033 32.486C33.5875 32.3364 33.2801 32.5022 33.285 33.011C33.2867 33.1524 33.262 33.2938 33.2505 33.4352C33.0812 35.2882 31.7235 36.6292 29.9153 36.73C27.9198 36.8405 26.3024 35.6816 25.9786 33.8172C25.7303 32.3868 25.7484 30.9678 26.3813 29.5911C27.0618 28.1103 27.6585 26.5905 28.2962 25.0788C28.1598 25.0252 28.0858 24.9878 28.0069 24.9667C24.7096 24.0792 21.4089 23.2014 18.1165 22.2928C17.7138 22.1823 17.6119 22.4001 17.4524 22.6342C15.7429 25.1601 14.0318 27.6828 12.3206 30.2087C12.1185 30.5078 11.9196 30.8118 11.7026 31.1369C12.1612 31.4814 12.582 31.8 13.0044 32.1154C13.44 32.4405 13.8789 32.7639 14.3161 33.0874C15.1988 32.3429 16.1719 32.13 17.2354 32.3381C18.3236 32.5494 19.1011 33.1947 19.5975 34.1651C21.6933 32.6274 24.7178 33.8107 25.04 36.5528C27.6338 36.9056 29.1 39.4331 27.6042 41.8453V41.8502ZM51.3679 31.2441C51.2003 30.9759 51.1312 30.8557 51.0523 30.7402C49.2754 28.1152 47.4821 25.5014 45.7348 22.8568C45.4011 22.3529 45.1217 22.1937 44.5168 22.4017C42.6922 23.0291 40.843 23.3997 38.9494 22.6033C38.7554 22.522 38.4628 22.5773 38.2442 22.652C35.9824 23.4241 33.7321 24.2287 31.467 24.9845C30.8079 25.204 30.392 25.5876 30.1389 26.215C29.6129 27.5105 29.1099 28.819 28.4984 30.0738C28.0119 31.0718 27.9593 32.0942 28.0234 33.1508C28.0743 33.9814 28.7581 34.6153 29.5948 34.6429C30.3674 34.6689 31.0002 34.1017 31.1186 33.2646C31.1465 33.0646 31.1334 32.8598 31.1531 32.6583C31.2649 31.4473 31.9339 30.6118 33.0549 30.433C33.6088 30.3453 34.2433 30.2997 34.7529 30.4802C35.9758 30.9142 37.2087 31.3888 38.3215 32.039C40.0277 33.037 41.6418 34.1927 43.2872 35.2931C43.9546 35.7401 44.6269 35.7856 45.2926 35.3419C47.3078 33.996 49.3132 32.6323 51.3696 31.2441H51.3679ZM8.89013 31.4376C11.5514 27.5105 14.1715 23.6452 16.8262 19.7279C14.7057 18.3235 12.6231 16.9435 10.5092 15.544C9.21724 17.4539 7.95812 19.3166 6.67764 21.2119C7.43541 21.7158 8.16195 22.1709 8.85561 22.6699C9.23203 22.9414 9.61174 23.2437 9.88789 23.6078C10.8232 24.835 10.7147 26.5629 9.68242 27.6958C8.62055 28.8596 6.91434 29.1311 5.54181 28.3102C4.68706 27.7998 3.87176 27.226 2.99729 26.6539C2.84935 26.8782 2.72278 27.07 2.58799 27.2732C4.7035 28.6711 6.76147 30.0299 8.89177 31.4376H8.89013ZM57.4629 29.2432C54.7951 25.3048 52.1701 21.4313 49.5236 17.5254C48.3746 18.2893 47.2963 19.0045 46.1868 19.7425C48.8464 23.6679 51.4649 27.53 54.1196 31.4457C55.2439 30.7061 56.3271 29.9909 57.4629 29.2432ZM51.3055 16.3437C53.9716 20.2789 56.5967 24.1539 59.2415 28.0583C59.6656 27.7754 60.0338 27.53 60.4348 27.2618C57.7785 23.3412 55.1502 19.4613 52.5054 15.557C52.0994 15.8235 51.7279 16.0674 51.3055 16.3437ZM17.9538 41.7283C18.3433 41.4926 18.6491 41.3674 18.8776 41.1593C19.4348 40.6522 19.9575 40.1093 20.4934 39.5778C21.187 38.8886 21.8971 38.2157 22.5645 37.5021C23.0067 37.0275 22.9754 36.4082 22.5612 35.9595C22.1651 35.5288 21.4418 35.415 21.0095 35.8263C19.6666 37.1022 18.3384 38.3977 17.0727 39.7485C16.8492 39.9874 16.8114 40.5969 16.9577 40.9155C17.1138 41.2536 17.5889 41.4487 17.9538 41.7299V41.7283ZM21.0818 44.88C21.4813 44.6557 21.8067 44.5484 22.027 44.3371C23.2466 43.1651 24.4499 41.9753 25.6399 40.7725C26.1774 40.2296 26.1742 39.5778 25.6876 39.095C25.2126 38.6236 24.537 38.6285 23.988 39.1357C23.5244 39.5648 23.0839 40.0199 22.6352 40.4637C21.8675 41.2227 21.0933 41.9769 20.3356 42.7474C19.9772 43.1115 19.8112 43.5878 20.1054 44.0218C20.3339 44.3582 20.7317 44.5825 21.0818 44.88ZM26.2514 43.7324C25.8799 43.8722 25.6005 43.8998 25.4378 44.0494C24.7375 44.6979 24.0406 45.3546 23.4028 46.0617C22.9951 46.5152 23.0938 47.1101 23.531 47.536C23.9682 47.9618 24.5633 48.0464 25.0252 47.6384C25.7254 47.0207 26.4191 46.3803 27.0043 45.6602C27.2179 45.3969 27.2459 44.8263 27.1111 44.4948C26.978 44.168 26.5325 43.9649 26.2514 43.7308V43.7324ZM17.8601 35.4687C17.5806 35.1371 17.362 34.7405 17.0267 34.5129C16.5993 34.2219 16.1111 34.3536 15.7396 34.7063C15.1347 35.2785 14.5364 35.8588 13.966 36.4634C13.4877 36.969 13.514 37.6338 13.9808 38.0905C14.4493 38.5473 15.1002 38.5651 15.6262 38.0824C16.2245 37.533 16.8031 36.9608 17.3554 36.3675C17.551 36.1579 17.648 35.8571 17.8617 35.4703L17.8601 35.4687ZM5.50072 22.9934C5.04869 23.6598 4.64432 24.2563 4.21531 24.8903C5.05855 25.4445 5.84262 25.9891 6.65463 26.4865C7.21186 26.8278 7.88744 26.6539 8.21948 26.1451C8.53837 25.6559 8.44796 25.0008 7.9384 24.6334C7.16584 24.0759 6.35876 23.5672 5.50072 22.9934Z" fill="#008755"/>
<path d="M26.5915 1H24V3.59149H26.5915V1Z" stroke="#008755" stroke-width="1.3" stroke-linecap="round" stroke-linejoin="round"/>
<path d="M33.2956 1.00009H30.7041V3.59158H33.2956V1.00009Z" stroke="#008755" stroke-width="1.3" stroke-linecap="round" stroke-linejoin="round"/>
<path d="M40.0002 1.00009H37.4087V3.59158H40.0002V1.00009Z" stroke="#008755" stroke-width="1.3" stroke-linecap="round" stroke-linejoin="round"/>
<path d="M26.5915 7.70435H24V10.2958H26.5915V7.70435Z" stroke="#008755" stroke-width="1.3" stroke-linecap="round" stroke-linejoin="round"/>
<path d="M40.0002 7.70435H37.4087V10.2958H40.0002V7.70435Z" stroke="#008755" stroke-width="1.3" stroke-linecap="round" stroke-linejoin="round"/>
<path d="M26.5915 14.4086H24V17.0001H26.5915V14.4086Z" stroke="#008755" stroke-width="1.3" stroke-linecap="round" stroke-linejoin="round"/>
<path d="M33.2956 14.4086H30.7041V17.0001H33.2956V14.4086Z" stroke="#008755" stroke-width="1.3" stroke-linecap="round" stroke-linejoin="round"/>
<path d="M40.0002 14.4086H37.4087V17.0001H40.0002V14.4086Z" stroke="#008755" stroke-width="1.3" stroke-linecap="round" stroke-linejoin="round"/>
<path d="M38.7065 3.59155V7.70433" stroke="#008755" stroke-width="1.3" stroke-linecap="round" stroke-linejoin="round"/>
<path d="M25.2573 3.59155V7.70433" stroke="#008755" stroke-width="1.3" stroke-linecap="round" stroke-linejoin="round"/>
<path d="M38.7065 10.2981V14.4087" stroke="#008755" stroke-width="1.3" stroke-linecap="round" stroke-linejoin="round"/>
<path d="M25.2573 10.2981V14.4087" stroke="#008755" stroke-width="1.3" stroke-linecap="round" stroke-linejoin="round"/>
<path d="M26.5913 2.29587H30.7041" stroke="#008755" stroke-width="1.3" stroke-linecap="round" stroke-linejoin="round"/>
<path d="M33.2979 2.29587H37.4084" stroke="#008755" stroke-width="1.3" stroke-linecap="round" stroke-linejoin="round"/>
<path d="M26.5913 15.7066H30.7041" stroke="#008755" stroke-width="1.3" stroke-linecap="round" stroke-linejoin="round"/>
<path d="M33.2979 15.7066H37.4084" stroke="#008755" stroke-width="1.3" stroke-linecap="round" stroke-linejoin="round"/>
<path d="M28.6479 8.60874V5.64798H31.6087" stroke="#008755" stroke-width="1.3" stroke-linecap="round" stroke-linejoin="round"/>
<path d="M35.3543 9.39371V12.3545H32.3936" stroke="#008755" stroke-width="1.3" stroke-linecap="round" stroke-linejoin="round"/>
<path d="M28.6479 5.64798L35.3544 12.3545" stroke="#008755" stroke-width="1.3" stroke-linecap="round" stroke-linejoin="round"/>
</svg>
