<svg width="38" height="49" viewBox="0 0 38 49" fill="none" xmlns="http://www.w3.org/2000/svg">
<path d="M4.19776 5.22681C4.19776 3.87202 4.19633 2.60209 4.19776 1.33357C4.20062 0.374757 4.55638 0.00707089 5.51367 0.00707089C13.7677 0.00282836 22.0232 0.00707089 30.2773 0C30.756 0 31.1217 0.149903 31.4603 0.489306C33.4421 2.47057 35.4366 4.44052 37.4384 6.40199C37.767 6.72301 37.9056 7.07231 37.9056 7.52909C37.8984 19.5298 37.9013 31.5305 37.8999 43.5327C37.8999 44.483 37.5369 44.838 36.5725 44.8394C34.9351 44.8422 33.2963 44.8394 31.5832 44.8394C31.5832 45.7657 31.5832 46.658 31.5832 47.5518C31.5832 48.6987 31.2832 48.9985 30.1359 48.9985C20.5802 48.9985 11.023 48.9985 1.46736 48.9985C0.301473 48.9985 0.00142878 48.7043 0.00142878 47.5716C0 33.9304 0 20.2878 0 6.64523C0 5.5252 0.298615 5.22681 1.41449 5.22681C2.32034 5.22681 3.22476 5.22681 4.19776 5.22681ZM6.34665 42.7181H35.7624V8.33659C34.0822 8.33659 32.4433 8.33941 30.806 8.33659C29.8387 8.33376 29.4843 7.98587 29.4815 7.02564C29.4758 5.57894 29.4815 4.13223 29.4786 2.68411C29.4786 2.49744 29.46 2.30935 29.4486 2.10571H6.34665V42.7195V42.7181ZM29.4415 44.8394H28.7899C21.1074 44.8394 13.4263 44.8394 5.7437 44.8394C4.49638 44.8394 4.19776 44.5438 4.19776 43.3106C4.19776 31.5418 4.19776 19.7745 4.19776 8.00567V7.34666H2.12888V46.8928H29.4415V44.8394ZM31.6046 6.20966H34.015C33.2277 5.43045 32.3948 4.60739 31.6046 3.82535V6.20966Z" fill="#008755"/>
<path d="M24.8005 37.5367C27.3852 37.5367 29.9699 37.5325 32.5545 37.5395C33.2146 37.541 33.6818 37.9751 33.6976 38.5549C33.7133 39.1319 33.2546 39.5802 32.6017 39.624C32.4945 39.6311 32.3874 39.6269 32.2816 39.6269C31.9244 39.6269 31.5687 39.6269 31.2115 39.6269C26.5765 39.6269 21.943 39.6269 17.308 39.6269C17.0951 39.6269 16.8765 39.6339 16.6693 39.5958C16.105 39.4925 15.7635 39.0442 15.8063 38.4969C15.8464 37.9808 16.2364 37.5947 16.7808 37.5438C16.9394 37.5296 17.1008 37.5367 17.2623 37.5367C19.7755 37.5367 22.2887 37.5367 24.802 37.5367H24.8005Z" fill="#008755"/>
<path d="M24.708 31.286C22.1947 31.286 19.6815 31.2874 17.1683 31.2832C16.9397 31.2832 16.6997 31.2704 16.4868 31.1997C16.0296 31.0498 15.8038 30.6991 15.8067 30.2296C15.8095 29.7601 16.0438 29.415 16.5039 29.2722C16.7197 29.2043 16.9583 29.1902 17.1869 29.1902C22.2319 29.1859 27.2755 29.1874 32.3205 29.1874C32.3562 29.1874 32.392 29.1874 32.4277 29.1874C33.2035 29.2029 33.705 29.6215 33.6979 30.2494C33.6907 30.8773 33.1921 31.286 32.4105 31.286C29.843 31.2888 27.2769 31.286 24.7094 31.286H24.708Z" fill="#008755"/>
<path d="M24.7112 22.9322C22.1451 22.9322 19.5776 22.9337 17.0115 22.9322C16.3586 22.9322 15.9571 22.6593 15.8356 22.153C15.6899 21.552 16.04 21.0005 16.6543 20.8902C16.8629 20.8534 17.0801 20.8548 17.293 20.8548C22.2652 20.8534 27.2387 20.8534 32.2109 20.8548C33.1896 20.8548 33.704 21.2211 33.6983 21.907C33.6926 22.5928 33.1939 22.9351 32.1966 22.9351C29.702 22.9351 27.2059 22.9351 24.7112 22.9351V22.9322Z" fill="#008755"/>
<path d="M24.7249 12.5196C27.291 12.5196 29.8571 12.5238 32.4246 12.5168C32.9233 12.5168 33.3462 12.6285 33.5848 13.1036C33.892 13.7188 33.5205 14.4485 32.8361 14.5631C32.6275 14.5984 32.4103 14.5914 32.196 14.5914C27.2238 14.5914 22.2517 14.5914 17.2781 14.5914C16.2794 14.5914 15.7936 14.2463 15.7979 13.5463C15.8022 12.8519 16.2865 12.5182 17.2924 12.5182C19.7699 12.5182 22.2474 12.5182 24.7249 12.5182V12.5196Z" fill="#008755"/>
<path d="M11.5761 25.0337C12.252 25.0337 12.9278 25.0267 13.605 25.0366C14.2965 25.0465 14.7209 25.4198 14.7337 26.1057C14.7595 27.4619 14.758 28.8181 14.7352 30.1743C14.7237 30.8856 14.3008 31.2773 13.5807 31.283C12.2462 31.2957 10.9118 31.2943 9.57727 31.283C8.85002 31.2759 8.43854 30.8927 8.42853 30.1785C8.40996 28.8223 8.40853 27.4661 8.42853 26.1099C8.43996 25.4141 8.84288 25.0479 9.54584 25.038C10.2217 25.0281 10.8975 25.0351 11.5747 25.0351L11.5761 25.0337ZM10.5517 27.1409V29.1532H12.5934V27.1409H10.5517Z" fill="#008755"/>
<path d="M11.5394 14.5917C10.8808 14.5917 10.2221 14.6044 9.56485 14.5889C8.82474 14.5719 8.43897 14.207 8.42897 13.4787C8.4104 12.1409 8.4104 10.8017 8.42897 9.46387C8.43897 8.73981 8.83189 8.35233 9.56342 8.34384C10.915 8.32687 12.2681 8.32687 13.6197 8.34384C14.3127 8.35374 14.7228 8.7483 14.7356 9.43418C14.7599 10.7904 14.7599 12.1466 14.7356 13.5014C14.7228 14.1943 14.3198 14.5676 13.6212 14.586C12.9282 14.6044 12.2338 14.5903 11.5394 14.5903V14.5917ZM12.6067 10.4736H10.5479V12.4874H12.6067V10.4736Z" fill="#008755"/>
<path d="M19.9963 9.37723C20.9935 9.37723 21.9894 9.37158 22.9867 9.37865C23.744 9.38431 24.1997 9.78452 24.2026 10.4181C24.2069 11.0587 23.754 11.4716 23.0024 11.4745C21.0093 11.4829 19.0161 11.4815 17.023 11.4745C16.2743 11.4716 15.8085 11.0615 15.8028 10.4336C15.7971 9.80573 16.2657 9.3843 17.0072 9.37723C18.0045 9.36875 19.0004 9.37441 19.9977 9.37441L19.9963 9.37723Z" fill="#008755"/>
<path d="M20.0402 17.7311C21.036 17.7311 22.0333 17.7255 23.0292 17.7325C23.7493 17.7368 24.1936 18.1299 24.2036 18.7507C24.2136 19.3687 23.7736 19.8057 23.0649 19.8114C21.0189 19.8255 18.9729 19.8269 16.9269 19.8114C16.2239 19.8057 15.7824 19.3504 15.8024 18.7352C15.821 18.1469 16.2725 17.741 16.9454 17.7354C17.977 17.7269 19.01 17.7325 20.0416 17.7325L20.0402 17.7311Z" fill="#008755"/>
<path d="M19.9741 36.4858C18.9782 36.4858 17.9809 36.4901 16.9851 36.4844C16.2735 36.4802 15.812 36.0814 15.7992 35.4747C15.7849 34.8609 16.2278 34.4183 16.9379 34.4126C18.9839 34.3985 21.0299 34.3985 23.0759 34.4126C23.7846 34.4183 24.219 34.8609 24.2033 35.4804C24.1875 36.0998 23.746 36.4788 23.0174 36.483C22.0029 36.4887 20.9899 36.4844 19.9755 36.4844L19.9741 36.4858Z" fill="#008755"/>
<path d="M19.9761 28.1466C18.9802 28.1466 17.9844 28.1551 16.9885 28.1438C16.2412 28.1353 15.7855 27.7153 15.8012 27.0831C15.8169 26.4722 16.2627 26.0805 16.9899 26.0777C19.0002 26.0706 21.0105 26.0692 23.0194 26.0777C23.7509 26.0805 24.1896 26.4694 24.2024 27.0846C24.2167 27.7252 23.7723 28.1353 23.018 28.1438C22.0035 28.1551 20.9905 28.1466 19.9761 28.1466Z" fill="#008755"/>
<path d="M10.5618 37.0882C11.3119 36.3387 12.0492 35.5976 12.7921 34.8637C13.3436 34.3192 13.9909 34.2711 14.4366 34.7293C14.8767 35.1804 14.8281 35.7829 14.2909 36.3203C13.3251 37.2862 12.3563 38.2478 11.3791 39.2024C10.7961 39.7709 10.2475 39.761 9.65737 39.1939C9.3759 38.9238 9.09729 38.6494 8.82582 38.3708C8.33718 37.8702 8.29717 37.2451 8.71866 36.8166C9.15587 36.3712 9.73167 36.3896 10.2875 36.8661C10.366 36.934 10.4489 36.9977 10.5632 37.0882H10.5618Z" fill="#008755"/>
<path d="M10.5532 20.4265C11.3518 19.6247 12.1077 18.8511 12.8806 18.0959C13.3207 17.6646 13.8451 17.6151 14.2823 17.922C14.6938 18.2105 14.8538 18.7408 14.6352 19.1891C14.5523 19.3588 14.418 19.5115 14.2823 19.6473C13.3293 20.599 12.372 21.5494 11.409 22.4926C10.7903 23.0993 10.2703 23.0979 9.64874 22.5039C9.38012 22.2466 9.11437 21.9849 8.85433 21.7177C8.33426 21.1845 8.28711 20.5679 8.72717 20.1267C9.15152 19.701 9.75875 19.7293 10.296 20.2002C10.3617 20.2582 10.426 20.3148 10.5503 20.4251L10.5532 20.4265Z" fill="#008755"/>
<path d="M27.3786 18.7578C27.3857 19.315 26.9028 19.8015 26.3356 19.8085C25.7669 19.8156 25.2797 19.3447 25.2725 18.7804C25.2654 18.2176 25.7383 17.741 26.3127 17.7353C26.8842 17.7297 27.3728 18.1978 27.38 18.7578H27.3786Z" fill="#008755"/>
<path d="M27.3781 35.4648C27.3681 36.0291 26.8837 36.4901 26.3079 36.4816C25.7293 36.4745 25.2621 36.005 25.2706 35.4379C25.2778 34.8723 25.7593 34.4127 26.3365 34.4197C26.9123 34.4268 27.3881 34.9034 27.3781 35.4648Z" fill="#008755"/>
</svg>
